<svg width="20" height="20" viewBox="0 0 20 20" fill="none" xmlns="http://www.w3.org/2000/svg">
<g clip-path="url(#clip0_170_38)">
<path d="M20 0H0V20H20V0Z" fill="black"/>
<path d="M3.39 14V7.04H6.3C6.78667 7.04 7.20667 7.13 7.56 7.31C7.96667 7.51667 8.29 7.81333 8.53 8.2C8.77 8.58 8.89 9 8.89 9.46C8.89 9.92 8.77 10.3433 8.53 10.73C8.29667 11.1167 7.97667 11.4133 7.57 11.62C7.22333 11.8 6.8 11.89 6.3 11.89H5.21V14H3.39ZM15.9823 14H10.6323V7.04H13.3423C13.9223 7.04 14.3957 7.14333 14.7623 7.35C15.1223 7.55 15.4023 7.82333 15.6023 8.17C15.8023 8.51667 15.9023 8.9 15.9023 9.32C15.9023 9.84 15.7423 10.3067 15.4223 10.72C15.1023 11.1267 14.699 11.3967 14.2123 11.53L15.9823 14ZM11.2623 7.41L13.9823 11.21C14.429 11.1167 14.799 10.8933 15.0923 10.54C15.3857 10.1867 15.5323 9.78 15.5323 9.32C15.5323 8.95333 15.4423 8.62 15.2623 8.32C15.0823 8.02 14.829 7.79 14.5023 7.63C14.209 7.48333 13.8257 7.41 13.3523 7.41H11.2623ZM11.0023 7.65V11.24H13.5723L11.0023 7.65ZM11.0023 13.63H15.2823L13.8223 11.6L13.5123 11.61H11.0023V13.63Z" fill="white"/>
</g>
<defs>
<clipPath id="clip0_170_38">
<rect width="20" height="20" fill="white"/>
</clipPath>
</defs>
</svg>
