<svg width="870" height="397" viewBox="0 0 870 397" fill="none" xmlns="http://www.w3.org/2000/svg">
<path d="M100.812 175.219V26.1953H138.117C141.893 26.1953 146.06 26.4557 150.617 26.9766C155.305 27.3672 159.797 28.2786 164.094 29.7109C168.391 31.013 171.971 33.0964 174.836 35.9609C182.909 44.0339 186.945 53.8646 186.945 65.4531C186.945 74.4375 185.643 81.7292 183.039 87.3281C180.435 92.7969 176.854 96.9635 172.297 99.8281C167.87 102.693 162.727 104.711 156.867 105.883C151.008 106.924 144.758 107.51 138.117 107.641C131.607 107.641 124.966 107.641 118.195 107.641V175.219H100.812ZM118.195 91.625H137.141C142.87 91.625 148.143 90.9089 152.961 89.4766C157.779 88.0443 161.685 85.5052 164.68 81.8594C167.674 78.2135 169.172 73.1354 169.172 66.625C169.172 59.724 167.87 54.5807 165.266 51.1953C162.661 47.6797 159.081 45.3359 154.523 44.1641C149.966 42.862 144.693 42.2109 138.703 42.2109H118.195V91.625ZM194.812 175.219V26.1953H235.047C243.901 26.1953 251.648 27.4974 258.289 30.1016C264.93 32.5755 270.073 36.612 273.719 42.2109C277.495 47.8099 279.383 55.362 279.383 64.8672C279.383 75.1536 276.453 83.0964 270.594 88.6953C264.734 94.2943 257.052 98.2005 247.547 100.414C250.932 101.586 254.057 103.214 256.922 105.297C259.917 107.25 262.326 109.724 264.148 112.719C266.362 116.234 268.25 120.661 269.812 126C271.375 131.339 272.742 137.003 273.914 142.992C275.086 148.982 276.193 154.841 277.234 160.57C278.276 166.169 279.318 171.052 280.359 175.219H261.219C260.177 169.49 259.201 163.76 258.289 158.031C257.508 152.302 256.596 146.638 255.555 141.039C254.773 136.091 253.341 131.013 251.258 125.805C249.174 120.466 246.245 115.974 242.469 112.328C238.823 108.682 234.005 106.859 228.016 106.859H212.195V175.219H194.812ZM212.195 91.0391H228.406C234.396 91.0391 239.865 90.2578 244.812 88.6953C249.891 87.1328 253.927 84.4635 256.922 80.6875C260.047 76.9115 261.609 71.638 261.609 64.8672C261.609 58.8776 260.242 54.2552 257.508 51C254.773 47.6146 251.193 45.2708 246.766 43.9688C242.339 42.6667 237.521 42.0156 232.312 42.0156H212.195V91.0391ZM294.016 175.219V24.8281H311.789V175.219H294.016ZM360.211 175.219V109.789L324.273 24.8281H342.438L369 92.2109L395.367 24.8281H413.727L377.789 109.789V175.219H360.211ZM390.273 175.219L426.211 23.4609H443.789L479.727 175.219H462.148L452.773 131.664H417.227L407.852 175.219H390.273ZM420.547 116.234H449.453L435 49.6328L420.547 116.234ZM486.812 175.219V24.8281H507.32L553.805 142.797V24.8281H571.188V175.219H550.68L504.195 57.25V175.219H486.812ZM623.391 176.586C613.625 176.586 605.682 174.503 599.562 170.336C593.443 166.169 588.82 160.57 585.695 153.539C582.57 146.378 580.552 138.305 579.641 129.32H599.367C599.758 134.529 600.734 139.542 602.297 144.359C603.99 149.177 606.594 153.083 610.109 156.078C613.625 159.073 618.443 160.57 624.562 160.57C631.854 160.57 637.714 158.227 642.141 153.539C646.568 148.721 648.781 142.732 648.781 135.57C648.781 129.711 647.544 124.893 645.07 121.117C642.727 117.211 639.536 113.956 635.5 111.352C631.464 108.747 627.036 106.404 622.219 104.32C617.531 102.237 612.779 100.089 607.961 97.875C603.143 95.5312 598.716 92.7969 594.68 89.6719C590.643 86.5469 587.388 82.7057 584.914 78.1484C582.57 73.5911 581.398 67.862 581.398 60.9609C581.398 53.1484 583.286 46.4427 587.062 40.8438C590.839 35.2448 595.852 30.9479 602.102 27.9531C608.482 24.9583 615.318 23.4609 622.609 23.4609C635.891 23.4609 645.656 27.1719 651.906 34.5938C658.286 42.0156 662.062 51.9766 663.234 64.4766H644.289C643.378 57.7057 641.164 51.8464 637.648 46.8984C634.133 41.9505 628.534 39.4766 620.852 39.4766C613.951 39.4766 608.547 41.1042 604.641 44.3594C600.734 47.6146 598.781 52.888 598.781 60.1797C598.781 64.9974 600.018 69.0339 602.492 72.2891C604.966 75.5443 608.156 78.3438 612.062 80.6875C616.099 83.0312 620.526 85.2448 625.344 87.3281C630.292 89.2812 635.174 91.4948 639.992 93.9688C644.81 96.3125 649.172 99.1771 653.078 102.562C657.115 105.948 660.37 110.18 662.844 115.258C665.318 120.206 666.555 126.326 666.555 133.617C666.555 147.029 662.714 157.576 655.031 165.258C647.479 172.81 636.932 176.586 623.391 176.586ZM674.812 175.219V24.8281H692.195V90.2578H741.805V24.8281H759.188V175.219H741.805V106.859H692.195V175.219H674.812Z" fill="black"/>
<path d="M7.8125 349.852V202.195H36.9141C48.112 202.195 57.3568 204.214 64.6484 208.25C72.0703 212.156 77.8646 217.56 82.0312 224.461C86.1979 231.362 89.1276 239.24 90.8203 248.094C92.513 256.948 93.3594 266.258 93.3594 276.023C93.3594 285.008 92.513 293.927 90.8203 302.781C89.2578 311.505 86.4583 319.448 82.4219 326.609C78.5156 333.641 73.0469 339.305 66.0156 343.602C59.1146 347.768 50.3255 349.852 39.6484 349.852H7.8125ZM25.1953 333.25H38.4766C46.9401 333.25 53.6458 331.557 58.5938 328.172C63.5417 324.656 67.1875 320.099 69.5312 314.5C72.0052 308.771 73.6328 302.521 74.4141 295.75C75.1953 288.849 75.5859 282.078 75.5859 275.438C75.5859 269.057 75.0651 262.547 74.0234 255.906C73.112 249.266 71.3542 243.146 68.75 237.547C66.1458 231.948 62.3698 227.456 57.4219 224.07C52.474 220.555 46.0286 218.797 38.0859 218.797H25.1953V333.25ZM101.812 349.852V202.195H187.359V218.797H119.195V266.062H176.422V282.664H119.195V333.25H187.359V349.852H101.812ZM228.625 351.219L193.273 200.828H211.242L238 325.047L264.758 200.828H282.727L247.375 351.219H228.625ZM289.812 349.852V202.195H375.359V218.797H307.195V266.062H364.422V282.664H307.195V333.25H375.359V349.852H289.812ZM383.812 349.852V200.828H401.586V332.664H470.727V349.852H383.812ZM520 352.586C512.188 352.586 505.677 350.958 500.469 347.703C495.26 344.318 491.029 339.891 487.773 334.422C484.648 328.823 482.24 322.703 480.547 316.062C478.984 309.292 477.943 302.521 477.422 295.75C476.901 288.849 476.641 282.469 476.641 276.609C476.641 270.62 476.901 264.174 477.422 257.273C478.073 250.242 479.18 243.341 480.742 236.57C482.435 229.799 484.909 223.615 488.164 218.016C491.419 212.417 495.651 207.924 500.859 204.539C506.198 201.154 512.839 199.461 520.781 199.461C528.464 199.461 534.844 201.154 539.922 204.539C545.13 207.924 549.297 212.482 552.422 218.211C555.547 223.81 557.891 229.995 559.453 236.766C561.016 243.536 562.057 250.372 562.578 257.273C563.099 264.044 563.359 270.294 563.359 276.023C563.359 281.883 563.099 288.263 562.578 295.164C562.057 302.065 560.951 308.901 559.258 315.672C557.695 322.312 555.286 328.432 552.031 334.031C548.906 339.63 544.74 344.122 539.531 347.508C534.323 350.893 527.812 352.586 520 352.586ZM520 335.984C524.948 335.984 528.984 334.487 532.109 331.492C535.365 328.497 537.904 324.656 539.727 319.969C541.549 315.281 542.852 310.268 543.633 304.93C544.544 299.461 545.065 294.253 545.195 289.305C545.456 284.227 545.586 280.06 545.586 276.805C545.586 273.419 545.456 269.188 545.195 264.109C545.065 259.031 544.544 253.758 543.633 248.289C542.852 242.69 541.484 237.482 539.531 232.664C537.708 227.716 535.169 223.745 531.914 220.75C528.789 217.625 524.688 216.062 519.609 216.062C514.661 216.062 510.625 217.625 507.5 220.75C504.375 223.745 501.901 227.716 500.078 232.664C498.255 237.482 496.953 242.625 496.172 248.094C495.391 253.562 494.87 258.836 494.609 263.914C494.479 268.862 494.414 272.964 494.414 276.219C494.414 279.474 494.479 283.641 494.609 288.719C494.87 293.667 495.391 298.875 496.172 304.344C497.083 309.812 498.451 314.956 500.273 319.773C502.096 324.591 504.57 328.497 507.695 331.492C510.951 334.487 515.052 335.984 520 335.984ZM571.812 351.219V202.195H609.117C612.893 202.195 617.06 202.456 621.617 202.977C626.305 203.367 630.797 204.279 635.094 205.711C639.391 207.013 642.971 209.096 645.836 211.961C653.909 220.034 657.945 229.865 657.945 241.453C657.945 250.438 656.643 257.729 654.039 263.328C651.435 268.797 647.854 272.964 643.297 275.828C638.87 278.693 633.727 280.711 627.867 281.883C622.008 282.924 615.758 283.51 609.117 283.641C602.607 283.641 595.966 283.641 589.195 283.641V351.219H571.812ZM589.195 267.625H608.141C613.87 267.625 619.143 266.909 623.961 265.477C628.779 264.044 632.685 261.505 635.68 257.859C638.674 254.214 640.172 249.135 640.172 242.625C640.172 235.724 638.87 230.581 636.266 227.195C633.661 223.68 630.081 221.336 625.523 220.164C620.966 218.862 615.693 218.211 609.703 218.211H589.195V267.625ZM665.812 349.852V202.195H751.359V218.797H683.195V266.062H740.422V282.664H683.195V333.25H751.359V349.852H665.812ZM759.812 351.219V202.195H800.047C808.901 202.195 816.648 203.497 823.289 206.102C829.93 208.576 835.073 212.612 838.719 218.211C842.495 223.81 844.383 231.362 844.383 240.867C844.383 251.154 841.453 259.096 835.594 264.695C829.734 270.294 822.052 274.201 812.547 276.414C815.932 277.586 819.057 279.214 821.922 281.297C824.917 283.25 827.326 285.724 829.148 288.719C831.362 292.234 833.25 296.661 834.812 302C836.375 307.339 837.742 313.003 838.914 318.992C840.086 324.982 841.193 330.841 842.234 336.57C843.276 342.169 844.318 347.052 845.359 351.219H826.219C825.177 345.49 824.201 339.76 823.289 334.031C822.508 328.302 821.596 322.638 820.555 317.039C819.773 312.091 818.341 307.013 816.258 301.805C814.174 296.466 811.245 291.974 807.469 288.328C803.823 284.682 799.005 282.859 793.016 282.859H777.195V351.219H759.812ZM777.195 267.039H793.406C799.396 267.039 804.865 266.258 809.812 264.695C814.891 263.133 818.927 260.464 821.922 256.688C825.047 252.911 826.609 247.638 826.609 240.867C826.609 234.878 825.242 230.255 822.508 227C819.773 223.615 816.193 221.271 811.766 219.969C807.339 218.667 802.521 218.016 797.312 218.016H777.195V267.039Z" fill="black"/>
</svg>
