<svg width="1233" height="485" viewBox="0 0 1233 485" fill="none" xmlns="http://www.w3.org/2000/svg">
<path d="M704.736 2.20703H734.897L736 3.6783L740.046 14.345L745.931 29.0576L751.449 43.4024L757.334 58.1151L766.897 82.3909L770.943 92.6898L776.092 105.563L781.242 118.805L785.656 129.839L791.541 144.92L795.954 155.954L801.104 169.196L802.943 173.242V2.57485L803.311 2.20703H828.69L829.058 2.57485V223.265L828.69 223.632H798.529L796.69 219.219L793.012 210.023L787.127 194.943L782.713 183.908L777.564 170.667L772.046 156.69L768 146.391L763.587 135.356L758.437 122.115L752.184 106.299L748.138 96.0001L743.357 83.8622L735.633 64.368L731.587 54.0691L730.851 52.23V223.265L730.483 223.632L714.667 224H705.472L704.368 223.265V2.57485L704.736 2.20703Z" fill="black"/>
<path d="M275.494 4.04688H333.977L345.379 4.41469L353.839 5.51814L363.035 7.72504L368.552 9.56412L376.276 13.2423L380.69 16.1848L384.368 19.1273L388.046 22.8055L392.46 29.0584L395.402 34.9434L397.242 39.725L399.081 48.1848L399.816 55.1733V66.9434L398.345 76.1388L396.506 82.0239L393.563 88.2768L389.885 93.4262L388.414 95.2653L385.471 97.84L381.425 101.15L375.908 104.828L368.92 108.507L360.092 111.817L354.575 113.288L355.311 114.024L361.563 116.966L368.184 121.38L372.23 124.691L376.276 129.472L379.219 134.254L382.529 141.242L385.104 148.599L388.414 160.369L391.724 175.081L398.713 211.863L401.288 223.265L400.92 223.633H372.966L372.23 222.162L367.816 195.679L365.242 179.127L362.667 165.886L359.724 155.955L356.782 148.231L352.736 140.507L349.058 135.357L345.012 130.943L341.334 128.001L335.081 125.058L331.035 123.955L328.828 123.587H301.242V223.265L300.874 223.633H275.127L274.759 223.265V4.41469L275.494 4.04688ZM301.242 27.5871L300.874 42.6676V99.3112H332.506L340.598 98.2078L346.851 96.7365L352.368 94.8974L358.621 91.5871L363.035 88.2768L365.609 85.702L368.92 81.2883L371.494 75.0354L372.966 68.4147L373.334 64.7365V58.4837L372.598 52.5986L371.494 48.1848L370.023 44.5066L367.081 40.4607L364.506 37.5181L360.828 34.5756L355.311 31.6331L349.425 29.794L341.701 28.3227L337.655 27.9549L328.828 27.5871H301.242Z" fill="black"/>
<path d="M1149.06 262.988H1165.61L1176.64 263.356L1187.31 264.827L1195.77 267.034L1203.13 269.977L1209.38 273.287L1215.26 277.701L1219.31 281.747L1223.72 288L1226.67 293.885L1228.87 299.77L1230.35 307.126L1231.08 313.747V325.885L1229.61 335.08L1227.77 340.965L1224.83 347.218L1221.15 352.368L1219.68 354.207L1216.74 356.781L1212.69 360.092L1207.17 363.77L1200.18 367.448L1191.36 370.758L1185.84 372.23L1186.58 372.965L1192.83 375.908L1199.45 380.322L1203.49 383.632L1207.54 388.414L1210.48 393.195L1214.16 400.919L1217.1 409.747L1220.78 423.724L1224.09 439.54L1229.98 470.804L1232.18 480.735V482.574H1204.23L1203.49 481.103L1199.08 454.62L1196.51 438.069L1193.93 424.827L1190.99 414.896L1188.05 407.172L1184 399.448L1180.32 394.299L1176.28 389.885L1172.6 386.942L1166.35 384L1162.3 382.896L1160.09 382.529H1132.51V482.207L1132.14 482.574H1106.39L1106.02 482.207V263.356L1149.06 262.988ZM1132.51 286.529L1132.14 292.781V358.253H1163.77L1171.86 357.149L1178.12 355.678L1183.63 353.839L1189.89 350.529L1194.3 347.218L1196.87 344.643L1200.55 339.494L1202.76 333.977L1204.23 327.356L1204.6 323.31V317.425L1203.86 311.54L1202.76 307.126L1201.29 303.448L1198.35 299.402L1195.77 296.46L1192.09 293.517L1186.58 290.574L1180.69 288.735L1172.97 287.264L1168.92 286.896L1160.46 286.529H1132.51Z" fill="black"/>
<path d="M18.7586 262.988H44.1379L54.069 263.356L62.5287 264.46L71.7241 266.666L79.4483 269.609L87.1724 273.655L91.5862 276.597L94.8966 279.172L99.6782 283.218L104.092 288L108.138 293.517L111.448 299.034L115.862 308.23L119.172 317.057L121.747 326.988L123.586 336.919L125.057 347.586L126.161 363.402V380.322L125.057 395.034L123.218 407.54L121.379 416.735L119.172 425.195L116.598 432.919L112.552 442.115L108.874 448.735L105.931 453.149L101.149 459.034L95.6322 464.551L90.8506 468.23L85.3333 471.908L77.6092 475.586L70.9885 477.793L61.7931 479.632L56.2759 480.368L49.6552 480.735H0.367816L0 480.368V263.356L18.7586 262.988ZM26.1149 287.632L25.7471 288.368V455.724L27.5862 456.092L51.4943 455.724L59.954 454.62L66.2069 452.781L72.092 450.207L76.8736 446.896L82.3908 442.115L86.8046 436.23L90.1149 430.345L93.0575 422.988L96 412.689L97.4713 404.597L98.5747 395.77L99.3103 385.103L99.6782 375.172V367.08L98.9425 354.207L97.4713 342.437L95.6322 332.506L93.0575 323.678L89.3793 314.483L85.7011 307.862L82.3908 303.816L79.8161 300.873H79.0805V300.138L75.0345 296.827L69.8851 293.517L63.6322 290.574L57.0115 288.735L52.2299 288L45.977 287.632H26.1149Z" fill="black"/>
<path d="M981.334 2.20703H1006.71L1007.45 4.04611L1007.08 98.5748L1078.8 98.207L1079.17 97.8392L1079.54 2.57485L1079.91 2.20703H1105.29L1105.66 2.57485V223.265L1105.29 223.632H1079.91L1079.54 223.265V123.219L1007.45 123.586V223.265L1007.08 223.632H981.334L980.966 223.265V2.57485L981.334 2.20703Z" fill="black"/>
<path d="M749.977 258.943H759.173L765.793 259.679L772.046 261.15L777.563 263.357L783.081 266.3L788.966 270.713L794.851 276.599L798.897 282.116L802.943 289.104L806.621 296.828L809.931 306.024L812.874 317.794L815.081 330.3L816.552 342.805L817.655 362.3V382.162L816.552 401.656L815.081 413.794L813.241 423.725L811.035 433.288L807.356 444.323L804.414 450.943L800.368 458.667L797.425 463.081L794.115 467.127L790.805 470.805L787.127 474.116L781.609 477.794L776.092 480.736L767.632 483.311L761.379 484.415L757.333 484.782H749.977L742.989 484.047L736 482.576L729.747 480.369L723.862 477.058L717.241 471.909L712.828 467.495L708.046 461.242L705.104 456.461L700.69 447.265L697.379 438.438L694.805 429.242L692.598 417.472L691.127 406.438L690.023 392.828L689.655 385.104V358.989L690.759 342.438L692.23 330.667L694.805 316.69L697.379 307.127L699.954 299.771L703.264 292.415L706.575 286.162L709.517 281.748L713.196 276.966L717.609 272.185L723.494 267.403L729.747 263.725L736.736 261.15L743.356 259.679L749.977 258.943ZM748.506 283.955L742.989 285.426L737.839 288.369L733.425 292.415L730.115 296.828L727.173 301.61L725.333 305.656L722.759 312.645L719.816 323.679L717.977 335.449L716.874 345.012L716.506 350.897L716.138 361.932V384.001L716.874 399.449L718.713 414.162L720.552 422.989L723.494 433.288L726.437 440.277L729.747 446.53L733.793 451.679L736.368 454.254L741.517 457.564L747.402 459.403L749.609 459.771H757.701L763.586 458.3L769.104 455.357L773.517 451.311L776.46 448.001L779.402 443.587L782.713 436.599L785.655 427.403L787.494 419.311L789.333 407.541L790.437 396.139L791.173 377.012V368.553L790.437 350.162L789.333 337.288L787.127 324.047L785.287 316.69L782.345 307.863L779.77 301.978L776.46 296.461L773.15 292.415L770.575 289.84L765.793 286.53L761.379 284.69L757.333 283.955H748.506Z" fill="black"/>
<path d="M257.839 262.988H263.724L264.459 263.356V287.264L264.092 287.632L164.413 288L164.046 356.781H247.54L248.275 357.517V381.057L247.54 381.793L164.413 382.161L164.046 456.092H264.092L264.459 456.46V480.368L263.356 480.735H138.666L137.931 480V263.724L138.298 263.356L257.839 262.988Z" fill="black"/>
<path d="M968.46 262.988L1093.89 263.356L1094.25 263.724V287.264L1093.89 287.632L994.207 288L993.84 356.781H1077.33L1078.07 357.517V381.057L1077.33 381.793L994.207 382.161L993.84 456.092H1093.89L1094.25 456.46V480.368L1093.52 480.735H968.46L967.725 480V263.356L968.46 262.988Z" fill="black"/>
<path d="M414.896 262.988L540.689 263.356L541.057 263.724V287.264L540.689 287.632L441.011 288L440.643 356.781H524.138L524.873 357.517V381.057L524.138 381.793L441.011 382.161L440.643 456.092H540.689L541.057 456.46V480.368L540.321 480.735H415.264L414.528 480.368V263.356L414.896 262.988Z" fill="black"/>
<path d="M900.046 0H909.609L917.333 0.735632L924.69 2.2069L931.31 4.41379L939.034 8.45977L943.816 12.1379L947.862 16.1839L951.54 20.9655L955.586 27.5862L958.896 34.5747L961.103 41.1954L963.31 50.3908L964.414 57.7471V60.6897H936.46L935.724 58.4828L934.253 51.8621L932.046 45.2414L929.103 38.9885L925.425 33.4713L921.747 29.7931L916.598 26.8506L910.713 25.0115L904.827 24.2759H898.942L892.322 25.0115L886.805 26.4828L880.919 29.4253L877.609 32L874.667 35.3103L871.724 41.1954L870.253 48.1839L869.885 52.2299V56.2759L870.621 61.4253L872.46 67.3103L875.034 71.7241L878.713 75.7701V76.5057L880.184 77.2414L884.23 80.9195L891.218 85.3333L901.885 90.8506L911.08 94.8966L919.908 98.5747L925.425 101.149L936.092 106.667L944.919 112.552L948.965 115.862L954.85 121.379L958.529 125.793L962.942 132.782L965.517 138.299L967.356 143.816L968.827 151.172L969.563 158.897V166.989L968.46 176.92L966.253 186.483L963.31 193.839L959.632 200.46L956.322 204.874L953.379 208.552L950.437 211.126L946.391 214.437L941.609 217.379L935.724 220.322L929.839 222.529L922.483 224.368L914.759 225.471L910.345 225.839H900.782L893.793 225.103L884.965 223.264L877.609 220.69L872.092 217.747L866.207 213.333L858.115 205.241L854.437 200.092L851.126 194.207L847.816 186.483L844.873 177.287L842.667 167.724L841.195 157.793V155.954H870.253L870.621 156.322L872.46 168.46L874.667 176.92L876.873 182.437L878.713 186.115L882.391 191.264L886.437 195.31L890.483 197.885L894.896 199.724L899.31 200.828L901.149 201.195L909.241 201.563L915.494 200.828L919.908 199.724L925.793 197.149L930.942 193.471L934.621 189.793L938.299 184.276L940.873 178.023L942.345 171.402V159.264L941.241 153.011L939.034 147.126L936.092 141.977L932.046 136.828L927.632 132.782L921.747 128.736L915.126 125.057L904.827 119.908L891.586 114.023L881.287 109.241L873.195 104.828L868.782 101.885L862.896 97.4713L858.85 94.1609L854.437 89.3793L850.391 83.4943L847.816 79.0805L845.609 72.4598L844.138 65.1034L843.77 61.7931V50.023L844.873 42.6667L846.345 37.1494L848.552 31.6322L850.759 27.5862L854.437 22.4368L857.747 18.3908L861.057 15.0805L866.942 10.6667L872.46 7.35632L877.977 4.78161L884.598 2.57471L893.057 0.735632L900.046 0Z" fill="black"/>
<path d="M830.528 262.988H885.701L896.367 263.356L909.977 264.827L918.436 266.666L928.367 269.977L934.252 273.287L939.034 277.333L943.448 282.115L947.862 288.368L952.275 296.827L954.482 302.712L955.954 308.965L956.689 314.483V329.195L955.954 336.551L954.114 345.011L951.908 351.632L947.862 359.356L944.551 363.77L939.402 368.919L934.62 372.23L930.206 374.804L923.218 377.747L915.862 379.954L905.563 381.793L894.528 382.896L887.54 383.264L855.908 383.632V482.207L855.54 482.574H829.793L829.425 482.207V263.724L830.528 262.988ZM855.908 286.896L855.54 291.678V358.988L855.908 359.356H887.54L895.632 358.62L904.827 356.781L911.08 354.574L915.494 352.368L919.908 349.057L924.321 344.643L926.896 340.597L929.103 333.977L930.206 327.724V317.425L929.103 309.701L926.896 303.448L923.954 299.034L921.379 296.092L916.597 292.781L911.816 290.574L905.195 288.735L899.31 287.632L888.643 286.896H855.908Z" fill="black"/>
<path d="M173.242 4.04688H192.736L203.035 4.41469L217.012 5.88596L225.471 7.72504L235.402 11.0354L241.288 14.3457L246.069 18.3917L250.483 23.1733L254.897 29.4262L259.311 37.886L261.517 43.771L262.989 50.0239L263.724 55.5411V70.2538L262.989 77.6101L261.15 86.0699L258.943 92.6906L254.897 100.415L251.586 104.828L246.437 109.978L241.655 113.288L237.242 115.863L230.253 118.805L222.897 121.012L212.598 122.851L201.563 123.955L194.575 124.323L162.943 124.691V222.897L162.575 223.633H136.828L136.46 223.265V4.78251L136.828 4.41469L173.242 4.04688ZM162.943 27.9549L162.575 30.1618V100.415H194.575L202.667 99.6791L211.862 97.84L218.115 95.6331L222.529 93.4262L226.943 90.1158L231.357 85.702L233.931 81.6561L236.138 75.0354L237.242 68.7825V58.4837L236.138 50.7595L233.931 44.5066L231.357 40.4607L228.414 37.1503L223.632 33.84L218.851 31.6331L212.23 29.794L206.345 28.6906L195.678 27.9549H162.943Z" fill="black"/>
<path d="M615.724 0H641.103L641.839 0.367816L646.253 18.7586L652.506 45.6092L656.919 64L665.747 101.517L670.161 119.908L678.988 157.057L686.345 187.954L694.437 222.161V223.632H668.322L666.85 217.747L662.437 197.149L654.712 161.471V159.632H602.483L601.747 164.414L594.023 200.46L589.241 222.529L588.506 223.632H562.391L563.862 217.379L571.954 183.172L578.942 153.379L583.356 134.989L591.448 100.782L600.276 63.2644L604.689 44.8736L613.149 9.1954L614.988 1.10345L615.724 0ZM628.598 40.4598L627.862 42.2989L622.345 67.6782L617.195 91.5862L614.253 104.828L608.368 132.046L607.632 136.46H649.563L648.827 132.414L645.517 116.966L640 91.5862L632.276 55.908L628.965 40.4598H628.598Z" fill="black"/>
<path d="M272.92 261.15H299.402L300.874 266.668L308.23 300.875L319.264 352.001L325.517 380.691L329.563 399.817L335.816 428.507L338.391 440.277L338.759 441.38L340.966 431.817L345.379 411.587L349.425 392.461L357.885 353.104L363.77 325.886L377.379 262.622L378.115 261.15H404.598L404.23 263.725L400.184 281.38L395.402 301.978L391.724 317.426L379.954 367.449L372.598 399.081L368.92 414.162L365.609 428.507L360.828 449.104L357.885 461.242L353.103 481.472L352.368 482.576H324.782L324.046 480.369L314.483 439.909L306.759 406.806L294.253 353.84L290.207 336.553L285.793 317.426L281.747 300.507L275.494 273.656L272.92 262.989L272.552 261.518L272.92 261.15Z" fill="black"/>
<path d="M465.655 2.20703H492.506L493.977 5.14956L500.23 21.3335L506.115 36.0461L512 51.1266L517.15 64.0001L522.299 77.2415L527.448 90.1151L531.127 99.6783L531.862 100.046L532.966 96.7358L537.379 85.3335L542.161 73.1955L546.575 61.7932L550.621 51.4944L555.402 39.3565L560.552 26.1151L563.862 17.6553L568.644 5.51738L570.115 2.57485L570.483 2.20703H597.333L596.966 4.04611L592.184 15.0806L587.035 27.5863L580.414 43.0346L573.793 58.8507L568.644 70.9886L562.391 85.7013L558.713 94.5289L554.299 104.828L550.253 114.391L545.104 126.529L544.736 139.77V222.897L544.368 223.632H518.621L518.253 223.265L517.885 126.897L516.414 123.219L513.471 116.23L507.218 101.517L500.598 85.7013L497.287 77.9771L491.035 63.2645L484.414 47.4484L481.104 39.7243L474.851 25.0116L468.23 9.19554L466.023 4.04611L465.655 2.20703Z" fill="black"/>
<path d="M553.195 261.15H579.31L579.678 261.518V454.989H681.195L681.563 456.829L681.195 480.369L680.092 480.737H553.563L552.827 480.369V261.518L553.195 261.15Z" fill="black"/>
<path d="M421.149 2.20703H447.264L447.632 4.78174V222.897L447.264 223.632L422.253 224L420.781 223.265V2.94266L421.149 2.20703Z" fill="black"/>
</svg>
